<?xml version="1.0" standalone="no"?>
<!DOCTYPE svg PUBLIC "-//W3C//DTD SVG 20010904//EN"
 "http://www.w3.org/TR/2001/REC-SVG-20010904/DTD/svg10.dtd">
<svg version="1.0" xmlns="http://www.w3.org/2000/svg"
 width="200.000000pt" height="200.000000pt" viewBox="0 0 200.000000 200.000000"
 preserveAspectRatio="xMidYMid meet">
<metadata>
Created by potrace 1.11, written by Peter Selinger 2001-2013
</metadata>
<g transform="translate(0.000000,200.000000) scale(0.100000,-0.100000)"
fill="#000000" stroke="none">
<path d="M833 1965 c-356 -65 -644 -311 -760 -650 -174 -510 100 -1067 612
-1242 510 -174 1067 100 1242 612 174 510 -100 1067 -612 1242 -150 51 -332
65 -482 38z m9 -248 c7 -8 112 -253 232 -545 l219 -532 248 0 c272 0 279 -2
279 -60 0 -59 -3 -60 -318 -60 l-286 0 -25 24 c-52 47 -601 445 -605 438 -3
-4 -43 -102 -91 -217 -47 -115 -93 -217 -102 -227 -33 -37 -103 -11 -103 38 0
30 456 1135 473 1146 19 12 64 9 79 -5z"/>
<path d="M716 1299 c-64 -155 -76 -193 -65 -200 8 -4 111 -80 229 -167 118
-88 216 -159 217 -157 5 3 -291 715 -297 715 -3 0 -41 -86 -84 -191z"/>
</g>
</svg>
